<svg width="162" height="28" viewBox="0 0 162 28" fill="none" xmlns="http://www.w3.org/2000/svg">
<path d="M6.994 19.636C7.49667 19.688 7.956 19.714 8.372 19.714C9.49867 19.714 10.4607 19.584 11.258 19.324C12.0553 19.0467 12.7227 18.6827 13.26 18.232C13.8147 17.764 14.248 17.2353 14.56 16.646C14.8893 16.0567 15.132 15.4413 15.288 14.8C15.4613 14.1413 15.574 13.4913 15.626 12.85C15.678 12.1913 15.704 11.576 15.704 11.004C15.704 9.6 15.6173 8.33467 15.444 7.208C15.2707 6.064 14.924 5.09333 14.404 4.296C13.9013 3.48133 13.182 2.85733 12.246 2.424C11.3273 1.99067 10.114 1.774 8.606 1.774C8.25933 1.774 7.94733 1.78267 7.67 1.8C7.39267 1.8 7.16733 1.81733 6.994 1.852V19.636ZM3.224 1.852H0.832V1.488H3.224C4.108 1.488 4.992 1.47933 5.876 1.462C6.76 1.42733 7.644 1.41 8.528 1.41C9.308 1.41 10.1313 1.462 10.998 1.566C11.8647 1.67 12.7227 1.86067 13.572 2.138C14.4213 2.398 15.2273 2.75333 15.99 3.204C16.7527 3.65467 17.4287 4.22667 18.018 4.92C18.6073 5.61333 19.0753 6.43667 19.422 7.39C19.7687 8.34333 19.942 9.46133 19.942 10.744C19.942 12.0093 19.7687 13.1187 19.422 14.072C19.0753 15.0253 18.6073 15.8487 18.018 16.542C17.446 17.2353 16.7873 17.8073 16.042 18.258C15.2967 18.7087 14.5167 19.0727 13.702 19.35C12.9047 19.61 12.1073 19.792 11.31 19.896C10.53 20 9.802 20.052 9.126 20.052C8.138 20.052 7.15 20.0433 6.162 20.026C5.19133 20.0087 4.212 20 3.224 20H0.832V19.636H3.224V1.852ZM29.1312 13.552H29.0792C29.0445 13.656 28.9752 13.76 28.8712 13.864C28.7845 13.9507 28.6198 14.0547 28.3772 14.176C28.0478 14.332 27.7185 14.488 27.3892 14.644C27.0598 14.7827 26.7652 14.9647 26.5052 15.19C26.2452 15.4153 26.0285 15.6927 25.8552 16.022C25.6992 16.3513 25.6212 16.776 25.6212 17.296C25.6212 17.504 25.6298 17.7467 25.6472 18.024C25.6818 18.3013 25.7512 18.57 25.8552 18.83C25.9765 19.09 26.1498 19.3153 26.3752 19.506C26.6005 19.6793 26.9125 19.766 27.3112 19.766C27.5365 19.766 27.7532 19.714 27.9612 19.61C28.1865 19.506 28.3858 19.35 28.5592 19.142C28.7325 18.9167 28.8712 18.6307 28.9752 18.284C29.0792 17.92 29.1312 17.4867 29.1312 16.984V13.552ZM34.3832 19.584C34.1405 19.948 33.7852 20.1647 33.3172 20.234C32.8665 20.3033 32.4418 20.338 32.0432 20.338C31.1592 20.338 30.5005 20.182 30.0672 19.87C29.6512 19.558 29.3912 19.1247 29.2872 18.57H29.2352C28.9578 19.2633 28.5765 19.7313 28.0912 19.974C27.6058 20.2167 26.9038 20.338 25.9852 20.338C25.5692 20.338 25.1445 20.2947 24.7112 20.208C24.2778 20.1213 23.8792 19.9827 23.5152 19.792C23.1512 19.6013 22.8565 19.3413 22.6312 19.012C22.4058 18.6653 22.2932 18.2493 22.2932 17.764C22.2932 17.2613 22.3885 16.8453 22.5792 16.516C22.7872 16.1693 23.0472 15.8833 23.3592 15.658C23.6885 15.4153 24.0525 15.2247 24.4512 15.086C24.8672 14.93 25.2918 14.7827 25.7252 14.644C26.4358 14.436 27.0078 14.2627 27.4412 14.124C27.8918 13.968 28.2385 13.812 28.4812 13.656C28.7238 13.4827 28.8885 13.292 28.9752 13.084C29.0792 12.876 29.1312 12.6073 29.1312 12.278V10.692C29.1312 10.224 29.0185 9.79933 28.7932 9.418C28.5678 9.03667 28.1432 8.846 27.5192 8.846C27.1205 8.846 26.7738 8.94133 26.4792 9.132C26.1845 9.30533 26.0372 9.63467 26.0372 10.12C26.0372 10.172 26.0458 10.2673 26.0632 10.406C26.0805 10.5273 26.0978 10.666 26.1152 10.822C26.1325 10.978 26.1498 11.1253 26.1672 11.264C26.1845 11.4027 26.1932 11.498 26.1932 11.55C26.1932 11.81 26.1325 12.018 26.0112 12.174C25.8898 12.3127 25.7425 12.4167 25.5692 12.486C25.4132 12.5553 25.2398 12.5987 25.0492 12.616C24.8758 12.616 24.7285 12.616 24.6072 12.616C24.4338 12.616 24.2518 12.6073 24.0612 12.59C23.8878 12.5553 23.7318 12.4947 23.5932 12.408C23.4545 12.304 23.3332 12.1653 23.2292 11.992C23.1425 11.8187 23.0992 11.5847 23.0992 11.29C23.0992 10.8393 23.2205 10.4407 23.4632 10.094C23.7232 9.73 24.0612 9.43533 24.4772 9.21C24.8932 8.96733 25.3612 8.78533 25.8812 8.664C26.4185 8.54267 26.9732 8.482 27.5452 8.482C28.2038 8.482 28.8192 8.534 29.3912 8.638C29.9805 8.742 30.4832 8.93267 30.8992 9.21C31.3325 9.48733 31.6705 9.86867 31.9132 10.354C32.1732 10.822 32.3032 11.42 32.3032 12.148V18.596C32.3032 18.9253 32.3465 19.22 32.4332 19.48C32.5372 19.7227 32.7798 19.844 33.1612 19.844C33.3865 19.844 33.5685 19.8007 33.7072 19.714C33.8632 19.6273 34.0105 19.506 34.1492 19.35L34.3832 19.584ZM41.8856 9.21H39.5716C39.1036 9.21 38.7049 9.27067 38.3756 9.392C38.0463 9.496 37.7516 9.66067 37.4916 9.886C37.2489 10.1113 37.0323 10.3973 36.8416 10.744C36.6509 11.0907 36.4516 11.4893 36.2436 11.94H35.9576L36.3476 8.846H45.6296L39.3376 19.636H42.5096C43.0469 19.636 43.4889 19.5407 43.8356 19.35C44.1996 19.1593 44.4943 18.9167 44.7196 18.622C44.9623 18.31 45.1529 17.9633 45.2916 17.582C45.4476 17.1833 45.5949 16.7933 45.7336 16.412H46.0196L45.7336 20H35.5676L41.8856 9.21ZM55.2988 13.11V11.368C55.2988 11.1773 55.2901 10.9433 55.2728 10.666C55.2554 10.3887 55.1948 10.1113 55.0908 9.834C54.9868 9.55667 54.8134 9.32267 54.5708 9.132C54.3454 8.94133 54.0248 8.846 53.6088 8.846C53.0194 8.846 52.5601 8.98467 52.2308 9.262C51.9188 9.53933 51.6848 9.89467 51.5288 10.328C51.3728 10.744 51.2688 11.2033 51.2168 11.706C51.1821 12.1913 51.1561 12.6593 51.1388 13.11H55.2988ZM51.1388 13.474V14.644C51.1388 15.268 51.1648 15.9007 51.2168 16.542C51.2688 17.166 51.4074 17.738 51.6328 18.258C51.8581 18.7607 52.1874 19.1767 52.6208 19.506C53.0541 19.8353 53.6608 20 54.4408 20C55.1341 20 55.7148 19.87 56.1828 19.61C56.6681 19.35 57.0581 19.0553 57.3528 18.726C57.6648 18.3793 57.8901 18.0413 58.0288 17.712C58.1848 17.3827 58.2714 17.14 58.2888 16.984L58.6528 17.114C58.5661 17.4433 58.4188 17.7987 58.2108 18.18C58.0028 18.544 57.7168 18.8907 57.3528 19.22C56.9888 19.532 56.5381 19.792 56.0008 20C55.4634 20.2253 54.8134 20.338 54.0508 20.338C53.1494 20.338 52.3088 20.208 51.5288 19.948C50.7488 19.6707 50.0641 19.2807 49.4748 18.778C48.9028 18.258 48.4521 17.634 48.1228 16.906C47.7934 16.1607 47.6288 15.32 47.6288 14.384C47.6288 13.6387 47.7848 12.9107 48.0968 12.2C48.4088 11.4893 48.8334 10.8653 49.3708 10.328C49.9254 9.77333 50.5668 9.33133 51.2948 9.002C52.0401 8.65533 52.8374 8.482 53.6868 8.482C54.2934 8.482 54.9001 8.57733 55.5068 8.768C56.1134 8.95867 56.6594 9.25333 57.1448 9.652C57.6301 10.0507 58.0288 10.5707 58.3408 11.212C58.6528 11.836 58.8088 12.59 58.8088 13.474H51.1388ZM74.8331 5.206L71.9211 12.304H77.9011L74.8331 5.206ZM66.3051 19.636H68.4891L76.2371 0.76H76.9391L85.1291 19.636H87.3651V20H78.6291V19.636H81.0471L78.0311 12.668H71.7911L68.9051 19.636H71.2191V20H66.3051V19.636ZM87.7756 19.636H89.4916V9.21H87.7756V8.846H92.6116V11.446H92.6636C92.7329 11.29 92.8543 11.056 93.0276 10.744C93.2009 10.4147 93.4523 10.094 93.7816 9.782C94.1109 9.47 94.5356 9.20133 95.0556 8.976C95.5756 8.73333 96.2256 8.612 97.0056 8.612C98.1496 8.612 99.0336 8.94133 99.6576 9.6C100.299 10.2587 100.62 11.16 100.62 12.304V19.636H102.362V20H95.8356V19.636H97.4476V11.42C97.4476 10.692 97.3003 10.1633 97.0056 9.834C96.7109 9.48733 96.3123 9.314 95.8096 9.314C95.3936 9.314 94.9949 9.418 94.6136 9.626C94.2323 9.81667 93.8943 10.1113 93.5996 10.51C93.3223 10.9087 93.0969 11.4027 92.9236 11.992C92.7503 12.5813 92.6636 13.2747 92.6636 14.072V19.636H94.3016V20H87.7756V19.636ZM105.687 5.492C105.947 5.596 106.207 5.68267 106.467 5.752C106.744 5.82133 107.013 5.856 107.273 5.856C107.533 5.856 107.793 5.82133 108.053 5.752C108.33 5.68267 108.599 5.596 108.859 5.492V8.846H111.901V9.21H108.859V17.92C108.859 18.18 108.876 18.4227 108.911 18.648C108.945 18.8733 109.006 19.0813 109.093 19.272C109.197 19.4453 109.335 19.584 109.509 19.688C109.699 19.792 109.942 19.844 110.237 19.844C110.566 19.844 110.843 19.7747 111.069 19.636C111.311 19.4973 111.519 19.324 111.693 19.116C111.866 18.8907 112.005 18.6393 112.109 18.362C112.23 18.0847 112.325 17.816 112.395 17.556L112.785 17.634C112.681 18.2233 112.499 18.7 112.239 19.064C111.996 19.4107 111.71 19.6793 111.381 19.87C111.069 20.0607 110.731 20.182 110.367 20.234C110.003 20.3033 109.656 20.338 109.327 20.338C108.425 20.338 107.723 20.234 107.221 20.026C106.735 19.818 106.371 19.558 106.129 19.246C105.903 18.934 105.773 18.596 105.739 18.232C105.704 17.868 105.687 17.53 105.687 17.218V9.21H103.945V8.846H105.687V5.492ZM119.912 20C120.588 20 121.116 19.844 121.498 19.532C121.879 19.2027 122.156 18.778 122.33 18.258C122.52 17.738 122.633 17.14 122.668 16.464C122.72 15.788 122.746 15.1033 122.746 14.41C122.746 13.7167 122.72 13.0407 122.668 12.382C122.633 11.706 122.52 11.108 122.33 10.588C122.156 10.068 121.879 9.652 121.498 9.34C121.116 9.01067 120.588 8.846 119.912 8.846C119.236 8.846 118.707 9.01067 118.326 9.34C117.944 9.652 117.658 10.068 117.468 10.588C117.294 11.108 117.182 11.706 117.13 12.382C117.095 13.0407 117.078 13.7167 117.078 14.41C117.078 15.1033 117.095 15.788 117.13 16.464C117.182 17.14 117.294 17.738 117.468 18.258C117.658 18.778 117.944 19.2027 118.326 19.532C118.707 19.844 119.236 20 119.912 20ZM119.912 8.482C120.813 8.482 121.645 8.64667 122.408 8.976C123.188 9.288 123.864 9.71267 124.436 10.25C125.008 10.7873 125.45 11.42 125.762 12.148C126.091 12.8587 126.256 13.6127 126.256 14.41C126.256 15.2247 126.091 15.996 125.762 16.724C125.45 17.4347 125.008 18.0587 124.436 18.596C123.864 19.1333 123.188 19.558 122.408 19.87C121.645 20.182 120.813 20.338 119.912 20.338C119.01 20.338 118.17 20.182 117.39 19.87C116.627 19.558 115.96 19.1333 115.388 18.596C114.816 18.0587 114.365 17.4347 114.036 16.724C113.724 15.996 113.568 15.2247 113.568 14.41C113.568 13.6127 113.724 12.8587 114.036 12.148C114.365 11.42 114.816 10.7873 115.388 10.25C115.96 9.71267 116.627 9.288 117.39 8.976C118.17 8.64667 119.01 8.482 119.912 8.482ZM128.223 19.636H129.939V9.21H128.223V8.846H133.059V11.446H133.111C133.18 11.29 133.302 11.056 133.475 10.744C133.648 10.4147 133.9 10.094 134.229 9.782C134.558 9.47 134.983 9.20133 135.503 8.976C136.023 8.73333 136.673 8.612 137.453 8.612C138.597 8.612 139.481 8.94133 140.105 9.6C140.746 10.2587 141.067 11.16 141.067 12.304V19.636H142.809V20H136.283V19.636H137.895V11.42C137.895 10.692 137.748 10.1633 137.453 9.834C137.158 9.48733 136.76 9.314 136.257 9.314C135.841 9.314 135.442 9.418 135.061 9.626C134.68 9.81667 134.342 10.1113 134.047 10.51C133.77 10.9087 133.544 11.4027 133.371 11.992C133.198 12.5813 133.111 13.2747 133.111 14.072V19.636H134.749V20H128.223V19.636ZM151.282 16.724L154.584 9.21H152.426V8.846H156.196V9.21H155C154.029 11.29 153.197 13.1533 152.504 14.8C151.81 16.4467 151.204 17.9113 150.684 19.194C150.181 20.4767 149.73 21.6033 149.332 22.574C148.95 23.562 148.586 24.4287 148.24 25.174C147.893 25.954 147.503 26.526 147.07 26.89C146.636 27.254 146.056 27.436 145.328 27.436C144.548 27.436 143.915 27.2453 143.43 26.864C142.927 26.5 142.676 25.9887 142.676 25.33C142.676 24.8273 142.84 24.4633 143.17 24.238C143.482 24.0127 143.863 23.9 144.314 23.9C144.643 23.9 144.955 23.9867 145.25 24.16C145.544 24.3507 145.692 24.628 145.692 24.992C145.692 25.304 145.631 25.5553 145.51 25.746C145.406 25.9367 145.354 26.162 145.354 26.422C145.354 26.6127 145.406 26.7513 145.51 26.838C145.614 26.942 145.735 26.994 145.874 26.994C146.186 26.994 146.472 26.8813 146.732 26.656C147.009 26.4307 147.252 26.1447 147.46 25.798C147.685 25.4687 147.876 25.1133 148.032 24.732C148.205 24.3507 148.352 24.004 148.474 23.692L149.592 20.91L144.704 9.21H143.326V8.846H149.93V9.21H148.11L151.282 16.724ZM157.793 18.414C157.793 17.9113 157.975 17.478 158.339 17.114C158.703 16.75 159.137 16.568 159.639 16.568C160.142 16.568 160.575 16.75 160.939 17.114C161.303 17.478 161.485 17.9113 161.485 18.414C161.485 18.9167 161.303 19.35 160.939 19.714C160.575 20.0607 160.142 20.234 159.639 20.234C159.137 20.234 158.703 20.0607 158.339 19.714C157.975 19.35 157.793 18.9167 157.793 18.414Z" fill="white"/>
</svg>
